<mxfile host="app.diagrams.net" modified="2024-05-12T17:23:42.954Z" agent="Mozilla/5.0 (Windows NT 10.0; Win64; x64) AppleWebKit/537.36 (KHTML, like Gecko) Chrome/124.0.0.0 Safari/537.36 Edg/124.0.0.0" etag="5HTgvJ5XC_Q5UmHjK3ZL" version="24.4.0" type="github">
  <diagram name="第 1 页" id="8UBZb_nB_1E6maDT3KKI">
    <mxGraphModel dx="3440" dy="1115" grid="0" gridSize="10" guides="1" tooltips="1" connect="1" arrows="1" fold="1" page="0" pageScale="1" pageWidth="827" pageHeight="1169" math="0" shadow="0">
      <root>
        <mxCell id="0" />
        <mxCell id="1" parent="0" />
        <mxCell id="7TrPOLzpwQCSaJe59OKQ-1" style="edgeStyle=orthogonalEdgeStyle;rounded=0;orthogonalLoop=1;jettySize=auto;html=1;exitX=1;exitY=0.5;exitDx=0;exitDy=0;entryX=0;entryY=0.5;entryDx=0;entryDy=0;startArrow=none;startFill=0;endArrow=none;endFill=0;fontSize=27;spacingTop=0;fontFamily=Helvetica;" parent="1" source="7TrPOLzpwQCSaJe59OKQ-4" target="7TrPOLzpwQCSaJe59OKQ-6" edge="1">
          <mxGeometry relative="1" as="geometry" />
        </mxCell>
        <mxCell id="7TrPOLzpwQCSaJe59OKQ-2" style="edgeStyle=orthogonalEdgeStyle;rounded=0;orthogonalLoop=1;jettySize=auto;html=1;exitX=1;exitY=0.5;exitDx=0;exitDy=0;entryX=0;entryY=0.5;entryDx=0;entryDy=0;endArrow=none;endFill=0;fontSize=27;spacingTop=0;fontFamily=Helvetica;" parent="1" source="7TrPOLzpwQCSaJe59OKQ-4" target="7TrPOLzpwQCSaJe59OKQ-12" edge="1">
          <mxGeometry relative="1" as="geometry" />
        </mxCell>
        <mxCell id="7TrPOLzpwQCSaJe59OKQ-3" style="edgeStyle=orthogonalEdgeStyle;rounded=0;orthogonalLoop=1;jettySize=auto;html=1;entryX=1;entryY=0.5;entryDx=0;entryDy=0;fontSize=27;spacingTop=0;fontFamily=Helvetica;" parent="1" source="7TrPOLzpwQCSaJe59OKQ-4" target="7TrPOLzpwQCSaJe59OKQ-20" edge="1">
          <mxGeometry relative="1" as="geometry" />
        </mxCell>
        <mxCell id="7TrPOLzpwQCSaJe59OKQ-4" value="&lt;span style=&quot;font-size: 27px;&quot;&gt;手续费&lt;/span&gt;" style="rounded=0;whiteSpace=wrap;html=1;fontSize=27;spacingTop=0;fontFamily=Helvetica;" parent="1" vertex="1">
          <mxGeometry x="-450" y="342.5" width="120" height="60" as="geometry" />
        </mxCell>
        <mxCell id="7TrPOLzpwQCSaJe59OKQ-5" value="" style="edgeStyle=orthogonalEdgeStyle;rounded=0;orthogonalLoop=1;jettySize=auto;html=1;endArrow=none;endFill=0;fontSize=27;spacingTop=0;fontFamily=Helvetica;" parent="1" source="7TrPOLzpwQCSaJe59OKQ-6" target="7TrPOLzpwQCSaJe59OKQ-7" edge="1">
          <mxGeometry relative="1" as="geometry" />
        </mxCell>
        <mxCell id="7TrPOLzpwQCSaJe59OKQ-6" value="&lt;span style=&quot;font-size: 27px;&quot;&gt;交易总金额&amp;lt;&lt;/span&gt;&lt;span lang=&quot;EN-US&quot; style=&quot;font-size: 27px;&quot;&gt;1000&lt;/span&gt;&lt;span style=&quot;font-size: 27px;&quot;&gt;元&lt;/span&gt;" style="rounded=0;whiteSpace=wrap;html=1;fontSize=27;spacingTop=0;fontFamily=Helvetica;" parent="1" vertex="1">
          <mxGeometry x="-100" y="172.5" width="250" height="60" as="geometry" />
        </mxCell>
        <mxCell id="7TrPOLzpwQCSaJe59OKQ-7" value="&lt;span style=&quot;font-size: 27px;&quot;&gt;交易金额的&lt;/span&gt;&lt;span lang=&quot;EN-US&quot; style=&quot;font-size: 27px;&quot;&gt;8.4%&lt;/span&gt;" style="whiteSpace=wrap;html=1;rounded=0;fontSize=27;spacingTop=0;fontFamily=Helvetica;" parent="1" vertex="1">
          <mxGeometry x="230" y="172.5" width="260" height="60" as="geometry" />
        </mxCell>
        <mxCell id="7TrPOLzpwQCSaJe59OKQ-8" value="" style="edgeStyle=orthogonalEdgeStyle;rounded=0;orthogonalLoop=1;jettySize=auto;html=1;endArrow=none;endFill=0;fontSize=27;spacingTop=0;fontFamily=Helvetica;" parent="1" source="7TrPOLzpwQCSaJe59OKQ-9" target="7TrPOLzpwQCSaJe59OKQ-13" edge="1">
          <mxGeometry relative="1" as="geometry" />
        </mxCell>
        <mxCell id="7TrPOLzpwQCSaJe59OKQ-9" value="&lt;span lang=&quot;EN-US&quot; style=&quot;font-size: 27px;&quot;&gt;1000&lt;/span&gt;&lt;span style=&quot;font-size: 27px;&quot;&gt;元&amp;lt;=&lt;/span&gt;&lt;span style=&quot;font-size: 27px;&quot;&gt;交易总金额&amp;lt;=&lt;/span&gt;&lt;span lang=&quot;EN-US&quot; style=&quot;font-size: 27px;&quot;&gt;10000&lt;/span&gt;&lt;span style=&quot;font-size: 27px;&quot;&gt;元&lt;/span&gt;" style="rounded=0;whiteSpace=wrap;html=1;fontSize=27;spacingTop=0;fontFamily=Helvetica;" parent="1" vertex="1">
          <mxGeometry x="-100" y="342.5" width="250" height="60" as="geometry" />
        </mxCell>
        <mxCell id="7TrPOLzpwQCSaJe59OKQ-10" style="edgeStyle=orthogonalEdgeStyle;rounded=0;orthogonalLoop=1;jettySize=auto;html=1;exitX=1;exitY=0.5;exitDx=0;exitDy=0;entryX=0;entryY=0.5;entryDx=0;entryDy=0;endArrow=none;endFill=0;fontSize=27;spacingTop=0;fontFamily=Helvetica;" parent="1" source="7TrPOLzpwQCSaJe59OKQ-4" target="7TrPOLzpwQCSaJe59OKQ-9" edge="1">
          <mxGeometry relative="1" as="geometry" />
        </mxCell>
        <mxCell id="7TrPOLzpwQCSaJe59OKQ-11" value="" style="edgeStyle=orthogonalEdgeStyle;rounded=0;orthogonalLoop=1;jettySize=auto;html=1;endArrow=none;endFill=0;fontSize=27;spacingTop=0;fontFamily=Helvetica;" parent="1" source="7TrPOLzpwQCSaJe59OKQ-12" target="7TrPOLzpwQCSaJe59OKQ-14" edge="1">
          <mxGeometry relative="1" as="geometry" />
        </mxCell>
        <mxCell id="7TrPOLzpwQCSaJe59OKQ-12" value="&lt;span style=&quot;font-size: 27px;&quot;&gt;交易总金额&amp;gt;&lt;/span&gt;&lt;span lang=&quot;EN-US&quot; style=&quot;font-size: 27px;&quot;&gt;10000&lt;/span&gt;&lt;span style=&quot;font-size: 27px;&quot;&gt;元&lt;/span&gt;" style="rounded=0;whiteSpace=wrap;html=1;fontSize=27;spacingTop=0;fontFamily=Helvetica;" parent="1" vertex="1">
          <mxGeometry x="-100" y="512.5" width="250" height="60" as="geometry" />
        </mxCell>
        <mxCell id="7TrPOLzpwQCSaJe59OKQ-13" value="&lt;span style=&quot;font-size: 27px;&quot;&gt;交易金额的&lt;/span&gt;&lt;span lang=&quot;EN-US&quot; style=&quot;font-size: 27px;&quot;&gt;5%+&lt;/span&gt;&lt;span lang=&quot;EN-US&quot; style=&quot;font-size: 27px;&quot;&gt;34&lt;/span&gt;&lt;span style=&quot;font-size: 27px;&quot;&gt;元&lt;/span&gt;" style="rounded=0;whiteSpace=wrap;html=1;fontSize=27;spacingTop=0;fontFamily=Helvetica;" parent="1" vertex="1">
          <mxGeometry x="230" y="342.5" width="260" height="60" as="geometry" />
        </mxCell>
        <mxCell id="7TrPOLzpwQCSaJe59OKQ-14" value="&lt;span style=&quot;font-size: 27px;&quot;&gt;交易金额的&lt;/span&gt;&lt;span lang=&quot;EN-US&quot; style=&quot;font-size: 27px;&quot;&gt;4%+&lt;/span&gt;&lt;span lang=&quot;EN-US&quot; style=&quot;font-size: 27px;&quot;&gt;134&lt;/span&gt;&lt;span style=&quot;font-size: 27px;&quot;&gt;元&lt;/span&gt;" style="whiteSpace=wrap;html=1;rounded=0;fontSize=27;spacingTop=0;fontFamily=Helvetica;" parent="1" vertex="1">
          <mxGeometry x="230" y="512.5" width="260" height="60" as="geometry" />
        </mxCell>
        <mxCell id="7TrPOLzpwQCSaJe59OKQ-15" value="" style="edgeStyle=orthogonalEdgeStyle;rounded=0;orthogonalLoop=1;jettySize=auto;html=1;endArrow=none;endFill=0;entryX=0;entryY=0.5;entryDx=0;entryDy=0;fontSize=27;spacingTop=0;fontFamily=Helvetica;" parent="1" source="7TrPOLzpwQCSaJe59OKQ-19" target="7TrPOLzpwQCSaJe59OKQ-22" edge="1">
          <mxGeometry relative="1" as="geometry">
            <mxPoint x="-250" y="937.5" as="sourcePoint" />
          </mxGeometry>
        </mxCell>
        <mxCell id="7TrPOLzpwQCSaJe59OKQ-16" style="edgeStyle=orthogonalEdgeStyle;rounded=0;orthogonalLoop=1;jettySize=auto;html=1;entryX=0;entryY=0.5;entryDx=0;entryDy=0;endArrow=none;endFill=0;fontSize=27;spacingTop=0;fontFamily=Helvetica;" parent="1" source="7TrPOLzpwQCSaJe59OKQ-19" target="7TrPOLzpwQCSaJe59OKQ-31" edge="1">
          <mxGeometry relative="1" as="geometry" />
        </mxCell>
        <mxCell id="7TrPOLzpwQCSaJe59OKQ-17" style="edgeStyle=orthogonalEdgeStyle;rounded=0;orthogonalLoop=1;jettySize=auto;html=1;entryX=0;entryY=0.5;entryDx=0;entryDy=0;endArrow=none;endFill=0;fontSize=27;spacingTop=0;fontFamily=Helvetica;" parent="1" source="7TrPOLzpwQCSaJe59OKQ-19" target="7TrPOLzpwQCSaJe59OKQ-40" edge="1">
          <mxGeometry relative="1" as="geometry" />
        </mxCell>
        <mxCell id="7TrPOLzpwQCSaJe59OKQ-18" style="edgeStyle=orthogonalEdgeStyle;rounded=0;orthogonalLoop=1;jettySize=auto;html=1;entryX=1;entryY=0.5;entryDx=0;entryDy=0;fontSize=27;spacingTop=0;fontFamily=Helvetica;" parent="1" source="7TrPOLzpwQCSaJe59OKQ-19" target="7TrPOLzpwQCSaJe59OKQ-20" edge="1">
          <mxGeometry relative="1" as="geometry" />
        </mxCell>
        <mxCell id="7TrPOLzpwQCSaJe59OKQ-19" value="&lt;span style=&quot;font-size: 27px;&quot;&gt;每股价格和股数有关的附加手续费&lt;/span&gt;" style="whiteSpace=wrap;html=1;fontSize=27;spacingTop=0;fontFamily=Helvetica;" parent="1" vertex="1">
          <mxGeometry x="-450" y="1057.5" width="170" height="130.5" as="geometry" />
        </mxCell>
        <mxCell id="7TrPOLzpwQCSaJe59OKQ-20" value="&lt;span style=&quot;font-size: 27px;&quot;&gt;总手续费&lt;/span&gt;" style="rounded=0;whiteSpace=wrap;html=1;fontSize=27;spacingTop=0;fontFamily=Helvetica;" parent="1" vertex="1">
          <mxGeometry x="-810" y="707.5" width="120" height="60" as="geometry" />
        </mxCell>
        <mxCell id="7TrPOLzpwQCSaJe59OKQ-21" value="" style="edgeStyle=orthogonalEdgeStyle;rounded=0;orthogonalLoop=1;jettySize=auto;html=1;endArrow=none;endFill=0;fontSize=27;spacingTop=0;fontFamily=Helvetica;" parent="1" source="7TrPOLzpwQCSaJe59OKQ-22" target="7TrPOLzpwQCSaJe59OKQ-25" edge="1">
          <mxGeometry relative="1" as="geometry" />
        </mxCell>
        <mxCell id="7TrPOLzpwQCSaJe59OKQ-22" value="&lt;span style=&quot;font-size: 27px;&quot;&gt;每股售价&amp;lt;&lt;/span&gt;&lt;span lang=&quot;EN-US&quot; style=&quot;font-size: 27px;&quot;&gt;14&lt;/span&gt;&lt;span style=&quot;font-size: 27px;&quot;&gt;元&lt;/span&gt;" style="whiteSpace=wrap;html=1;fontSize=27;spacingTop=0;fontFamily=Helvetica;" parent="1" vertex="1">
          <mxGeometry x="-160" y="797.5" width="180" height="60" as="geometry" />
        </mxCell>
        <mxCell id="7TrPOLzpwQCSaJe59OKQ-23" value="" style="edgeStyle=orthogonalEdgeStyle;rounded=0;orthogonalLoop=1;jettySize=auto;html=1;entryX=0;entryY=0.5;entryDx=0;entryDy=0;endArrow=none;endFill=0;fontSize=27;spacingTop=0;fontFamily=Helvetica;" parent="1" source="7TrPOLzpwQCSaJe59OKQ-25" target="7TrPOLzpwQCSaJe59OKQ-26" edge="1">
          <mxGeometry relative="1" as="geometry" />
        </mxCell>
        <mxCell id="7TrPOLzpwQCSaJe59OKQ-24" style="edgeStyle=orthogonalEdgeStyle;rounded=0;orthogonalLoop=1;jettySize=auto;html=1;entryX=0;entryY=0.5;entryDx=0;entryDy=0;endArrow=none;endFill=0;fontSize=27;spacingTop=0;fontFamily=Helvetica;" parent="1" source="7TrPOLzpwQCSaJe59OKQ-25" target="7TrPOLzpwQCSaJe59OKQ-28" edge="1">
          <mxGeometry relative="1" as="geometry" />
        </mxCell>
        <mxCell id="7TrPOLzpwQCSaJe59OKQ-25" value="&lt;span style=&quot;font-size: 27px;&quot;&gt;股数%&lt;/span&gt;&lt;span lang=&quot;EN-US&quot; style=&quot;font-size: 27px;&quot;&gt;100!=0&lt;/span&gt;" style="whiteSpace=wrap;html=1;fontSize=27;spacingTop=0;fontFamily=Helvetica;" parent="1" vertex="1">
          <mxGeometry x="90" y="797.5" width="120" height="60" as="geometry" />
        </mxCell>
        <mxCell id="7TrPOLzpwQCSaJe59OKQ-26" value="&lt;span style=&quot;font-size: 27px;&quot;&gt;股数*每股售价+&lt;/span&gt;&lt;span style=&quot;font-size: 27px;&quot;&gt;基本手续费的&lt;/span&gt;&lt;span lang=&quot;EN-US&quot; style=&quot;font-size: 27px;&quot;&gt;9%&lt;/span&gt;" style="whiteSpace=wrap;html=1;fontSize=27;spacingTop=0;fontFamily=Helvetica;" parent="1" vertex="1">
          <mxGeometry x="370" y="727.5" width="280" height="60" as="geometry" />
        </mxCell>
        <mxCell id="7TrPOLzpwQCSaJe59OKQ-27" value="真" style="text;html=1;align=center;verticalAlign=middle;resizable=0;points=[];autosize=1;strokeColor=none;fillColor=none;fontSize=27;spacingTop=0;fontFamily=Helvetica;" parent="1" vertex="1">
          <mxGeometry x="317" y="734.5" width="45" height="42" as="geometry" />
        </mxCell>
        <mxCell id="7TrPOLzpwQCSaJe59OKQ-28" value="&lt;span style=&quot;font-size: 27px;&quot;&gt;股数*每股售价+&lt;/span&gt;&lt;span style=&quot;font-size: 27px;&quot;&gt;基本手续费的&lt;/span&gt;&lt;span lang=&quot;EN-US&quot; style=&quot;font-size: 27px;&quot;&gt;9%&lt;/span&gt;" style="whiteSpace=wrap;html=1;fontSize=27;spacingTop=0;fontFamily=Helvetica;" parent="1" vertex="1">
          <mxGeometry x="370" y="857.5" width="280" height="60" as="geometry" />
        </mxCell>
        <mxCell id="7TrPOLzpwQCSaJe59OKQ-29" value="假" style="text;html=1;align=center;verticalAlign=middle;resizable=0;points=[];autosize=1;strokeColor=none;fillColor=none;fontSize=27;spacingTop=0;fontFamily=Helvetica;" parent="1" vertex="1">
          <mxGeometry x="323" y="864.5" width="45" height="42" as="geometry" />
        </mxCell>
        <mxCell id="7TrPOLzpwQCSaJe59OKQ-30" value="" style="edgeStyle=orthogonalEdgeStyle;rounded=0;orthogonalLoop=1;jettySize=auto;html=1;endArrow=none;endFill=0;fontSize=27;spacingTop=0;fontFamily=Helvetica;" parent="1" source="7TrPOLzpwQCSaJe59OKQ-31" target="7TrPOLzpwQCSaJe59OKQ-34" edge="1">
          <mxGeometry relative="1" as="geometry" />
        </mxCell>
        <mxCell id="7TrPOLzpwQCSaJe59OKQ-31" value="&lt;span lang=&quot;EN-US&quot; style=&quot;font-size: 27px;&quot;&gt;14&lt;/span&gt;&lt;span style=&quot;font-size: 27px;&quot;&gt;元&amp;lt;=&lt;/span&gt;&lt;span lang=&quot;EN-US&quot; style=&quot;font-size: 27px;&quot;&gt;&lt;span style=&quot;font-size: 27px;&quot;&gt;每股售价&amp;lt;=&lt;/span&gt;25&lt;/span&gt;&lt;span style=&quot;font-size: 27px;&quot;&gt;元&lt;/span&gt;" style="whiteSpace=wrap;html=1;fontSize=27;spacingTop=0;fontFamily=Helvetica;" parent="1" vertex="1">
          <mxGeometry x="-160" y="1057.5" width="180" height="60" as="geometry" />
        </mxCell>
        <mxCell id="7TrPOLzpwQCSaJe59OKQ-32" value="" style="edgeStyle=orthogonalEdgeStyle;rounded=0;orthogonalLoop=1;jettySize=auto;html=1;entryX=0;entryY=0.5;entryDx=0;entryDy=0;endArrow=none;endFill=0;fontSize=27;spacingTop=0;fontFamily=Helvetica;" parent="1" source="7TrPOLzpwQCSaJe59OKQ-34" target="7TrPOLzpwQCSaJe59OKQ-35" edge="1">
          <mxGeometry relative="1" as="geometry" />
        </mxCell>
        <mxCell id="7TrPOLzpwQCSaJe59OKQ-33" style="edgeStyle=orthogonalEdgeStyle;rounded=0;orthogonalLoop=1;jettySize=auto;html=1;entryX=0;entryY=0.5;entryDx=0;entryDy=0;endArrow=none;endFill=0;fontSize=27;spacingTop=0;fontFamily=Helvetica;" parent="1" source="7TrPOLzpwQCSaJe59OKQ-34" target="7TrPOLzpwQCSaJe59OKQ-37" edge="1">
          <mxGeometry relative="1" as="geometry" />
        </mxCell>
        <mxCell id="7TrPOLzpwQCSaJe59OKQ-34" value="&lt;span style=&quot;font-size: 27px;&quot;&gt;股数%&lt;/span&gt;&lt;span lang=&quot;EN-US&quot; style=&quot;font-size: 27px;&quot;&gt;100!=0&lt;/span&gt;" style="whiteSpace=wrap;html=1;fontSize=27;spacingTop=0;fontFamily=Helvetica;" parent="1" vertex="1">
          <mxGeometry x="90" y="1057.5" width="120" height="60" as="geometry" />
        </mxCell>
        <mxCell id="7TrPOLzpwQCSaJe59OKQ-35" value="&lt;span style=&quot;font-size: 27px;&quot;&gt;股数*每股售价+&lt;/span&gt;&lt;span style=&quot;font-size: 27px;&quot;&gt;基本手续费的6&lt;/span&gt;&lt;span lang=&quot;EN-US&quot; style=&quot;font-size: 27px;&quot;&gt;%&lt;/span&gt;" style="whiteSpace=wrap;html=1;fontSize=27;spacingTop=0;fontFamily=Helvetica;" parent="1" vertex="1">
          <mxGeometry x="370" y="987.5" width="280" height="60" as="geometry" />
        </mxCell>
        <mxCell id="7TrPOLzpwQCSaJe59OKQ-36" value="真" style="text;html=1;align=center;verticalAlign=middle;resizable=0;points=[];autosize=1;strokeColor=none;fillColor=none;fontSize=27;spacingTop=0;fontFamily=Helvetica;" parent="1" vertex="1">
          <mxGeometry x="317" y="994.5" width="45" height="42" as="geometry" />
        </mxCell>
        <mxCell id="7TrPOLzpwQCSaJe59OKQ-37" value="&lt;span style=&quot;font-size: 27px;&quot;&gt;股数*每股售价+&lt;/span&gt;&lt;span style=&quot;font-size: 27px;&quot;&gt;基本手续费的2&lt;/span&gt;&lt;span lang=&quot;EN-US&quot; style=&quot;font-size: 27px;&quot;&gt;%&lt;/span&gt;" style="whiteSpace=wrap;html=1;fontSize=27;spacingTop=0;fontFamily=Helvetica;" parent="1" vertex="1">
          <mxGeometry x="370" y="1117.5" width="280" height="60" as="geometry" />
        </mxCell>
        <mxCell id="7TrPOLzpwQCSaJe59OKQ-38" value="假" style="text;html=1;align=center;verticalAlign=middle;resizable=0;points=[];autosize=1;strokeColor=none;fillColor=none;fontSize=27;spacingTop=0;fontFamily=Helvetica;" parent="1" vertex="1">
          <mxGeometry x="323" y="1124.5" width="45" height="42" as="geometry" />
        </mxCell>
        <mxCell id="7TrPOLzpwQCSaJe59OKQ-39" value="" style="edgeStyle=orthogonalEdgeStyle;rounded=0;orthogonalLoop=1;jettySize=auto;html=1;endArrow=none;endFill=0;fontSize=27;spacingTop=0;fontFamily=Helvetica;" parent="1" source="7TrPOLzpwQCSaJe59OKQ-40" target="7TrPOLzpwQCSaJe59OKQ-43" edge="1">
          <mxGeometry relative="1" as="geometry" />
        </mxCell>
        <mxCell id="7TrPOLzpwQCSaJe59OKQ-40" value="&lt;span lang=&quot;EN-US&quot; style=&quot;font-size: 27px;&quot;&gt;&lt;span style=&quot;font-size: 27px;&quot;&gt;每股售价&amp;gt;&lt;/span&gt;25&lt;/span&gt;&lt;span style=&quot;font-size: 27px;&quot;&gt;元&lt;/span&gt;" style="whiteSpace=wrap;html=1;fontSize=27;spacingTop=0;fontFamily=Helvetica;" parent="1" vertex="1">
          <mxGeometry x="-160" y="1327.5" width="180" height="60" as="geometry" />
        </mxCell>
        <mxCell id="7TrPOLzpwQCSaJe59OKQ-41" value="" style="edgeStyle=orthogonalEdgeStyle;rounded=0;orthogonalLoop=1;jettySize=auto;html=1;entryX=0;entryY=0.5;entryDx=0;entryDy=0;endArrow=none;endFill=0;fontSize=27;spacingTop=0;fontFamily=Helvetica;" parent="1" source="7TrPOLzpwQCSaJe59OKQ-43" target="7TrPOLzpwQCSaJe59OKQ-44" edge="1">
          <mxGeometry relative="1" as="geometry" />
        </mxCell>
        <mxCell id="7TrPOLzpwQCSaJe59OKQ-42" style="edgeStyle=orthogonalEdgeStyle;rounded=0;orthogonalLoop=1;jettySize=auto;html=1;entryX=0;entryY=0.5;entryDx=0;entryDy=0;endArrow=none;endFill=0;fontSize=27;spacingTop=0;fontFamily=Helvetica;" parent="1" source="7TrPOLzpwQCSaJe59OKQ-43" target="7TrPOLzpwQCSaJe59OKQ-46" edge="1">
          <mxGeometry relative="1" as="geometry" />
        </mxCell>
        <mxCell id="7TrPOLzpwQCSaJe59OKQ-43" value="&lt;span style=&quot;font-size: 27px;&quot;&gt;股数%&lt;/span&gt;&lt;span lang=&quot;EN-US&quot; style=&quot;font-size: 27px;&quot;&gt;100!=0&lt;/span&gt;" style="whiteSpace=wrap;html=1;fontSize=27;spacingTop=0;fontFamily=Helvetica;" parent="1" vertex="1">
          <mxGeometry x="90" y="1327.5" width="120" height="60" as="geometry" />
        </mxCell>
        <mxCell id="7TrPOLzpwQCSaJe59OKQ-44" value="股数*每股售价+基本手续费的1.5%" style="whiteSpace=wrap;html=1;fontSize=27;spacingTop=0;fontFamily=Helvetica;" parent="1" vertex="1">
          <mxGeometry x="369" y="1257.5" width="371" height="96.5" as="geometry" />
        </mxCell>
        <mxCell id="7TrPOLzpwQCSaJe59OKQ-45" value="真" style="text;html=1;align=center;verticalAlign=middle;resizable=0;points=[];autosize=1;strokeColor=none;fillColor=none;fontSize=27;spacingTop=0;fontFamily=Helvetica;" parent="1" vertex="1">
          <mxGeometry x="317" y="1264.5" width="45" height="42" as="geometry" />
        </mxCell>
        <mxCell id="7TrPOLzpwQCSaJe59OKQ-46" value="&lt;span style=&quot;font-size: 27px;&quot;&gt;股数*每股售价+&lt;/span&gt;&lt;span style=&quot;font-size: 27px;&quot;&gt;基本手续费的4&lt;/span&gt;&lt;span lang=&quot;EN-US&quot; style=&quot;font-size: 27px;&quot;&gt;%&lt;/span&gt;" style="whiteSpace=wrap;html=1;fontSize=27;spacingTop=0;fontFamily=Helvetica;" parent="1" vertex="1">
          <mxGeometry x="370" y="1387.5" width="280" height="60" as="geometry" />
        </mxCell>
        <mxCell id="7TrPOLzpwQCSaJe59OKQ-47" value="假" style="text;html=1;align=center;verticalAlign=middle;resizable=0;points=[];autosize=1;strokeColor=none;fillColor=none;fontSize=27;spacingTop=0;fontFamily=Helvetica;" parent="1" vertex="1">
          <mxGeometry x="323" y="1394.5" width="45" height="42" as="geometry" />
        </mxCell>
        <mxCell id="7TrPOLzpwQCSaJe59OKQ-48" value="相加" style="text;html=1;align=center;verticalAlign=middle;resizable=0;points=[];autosize=1;strokeColor=none;fillColor=none;fontSize=27;spacingTop=0;fontFamily=Helvetica;" parent="1" vertex="1">
          <mxGeometry x="-666" y="712.5" width="72" height="42" as="geometry" />
        </mxCell>
        <mxCell id="7TrPOLzpwQCSaJe59OKQ-50" style="edgeStyle=orthogonalEdgeStyle;rounded=0;orthogonalLoop=1;jettySize=auto;html=1;exitX=1;exitY=0.5;exitDx=0;exitDy=0;entryX=0;entryY=0.5;entryDx=0;entryDy=0;fontSize=18;fontFamily=Helvetica;" parent="1" source="7TrPOLzpwQCSaJe59OKQ-52" target="7TrPOLzpwQCSaJe59OKQ-54" edge="1">
          <mxGeometry relative="1" as="geometry">
            <Array as="points">
              <mxPoint x="324" y="2613" />
              <mxPoint x="324" y="2540" />
            </Array>
          </mxGeometry>
        </mxCell>
        <mxCell id="7TrPOLzpwQCSaJe59OKQ-51" style="edgeStyle=orthogonalEdgeStyle;rounded=0;orthogonalLoop=1;jettySize=auto;html=1;exitX=1;exitY=0.5;exitDx=0;exitDy=0;entryX=0;entryY=0.5;entryDx=0;entryDy=0;fontSize=18;fontFamily=Helvetica;" parent="1" source="7TrPOLzpwQCSaJe59OKQ-52" target="7TrPOLzpwQCSaJe59OKQ-56" edge="1">
          <mxGeometry relative="1" as="geometry">
            <Array as="points">
              <mxPoint x="324" y="2613" />
              <mxPoint x="324" y="2693" />
            </Array>
          </mxGeometry>
        </mxCell>
        <mxCell id="7TrPOLzpwQCSaJe59OKQ-52" value="&lt;p class=&quot;MsoNormal&quot; style=&quot;font-size: 18px;&quot;&gt;&lt;span style=&quot;font-size: 18px;&quot;&gt;人数&lt;/span&gt;&lt;/p&gt;" style="rounded=0;whiteSpace=wrap;html=1;fontSize=18;fontFamily=Helvetica;" parent="1" vertex="1">
          <mxGeometry x="134" y="2583" width="120" height="60" as="geometry" />
        </mxCell>
        <mxCell id="7TrPOLzpwQCSaJe59OKQ-53" value="" style="edgeStyle=orthogonalEdgeStyle;rounded=0;orthogonalLoop=1;jettySize=auto;html=1;fontSize=18;fontFamily=Helvetica;" parent="1" source="7TrPOLzpwQCSaJe59OKQ-54" target="7TrPOLzpwQCSaJe59OKQ-58" edge="1">
          <mxGeometry relative="1" as="geometry" />
        </mxCell>
        <mxCell id="7TrPOLzpwQCSaJe59OKQ-54" value="&lt;p class=&quot;MsoNormal&quot; style=&quot;font-size: 18px;&quot;&gt;&lt;font style=&quot;font-size: 18px;&quot;&gt;&lt;span style=&quot;font-size: 18px;&quot;&gt;大于&amp;gt;40&lt;/span&gt;&lt;/font&gt;&lt;/p&gt;" style="whiteSpace=wrap;html=1;rounded=0;fontSize=18;fontFamily=Helvetica;" parent="1" vertex="1">
          <mxGeometry x="426" y="2510" width="120" height="60" as="geometry" />
        </mxCell>
        <mxCell id="7TrPOLzpwQCSaJe59OKQ-55" value="" style="edgeStyle=orthogonalEdgeStyle;rounded=0;orthogonalLoop=1;jettySize=auto;html=1;fontSize=18;fontFamily=Helvetica;" parent="1" source="7TrPOLzpwQCSaJe59OKQ-56" target="7TrPOLzpwQCSaJe59OKQ-60" edge="1">
          <mxGeometry relative="1" as="geometry" />
        </mxCell>
        <mxCell id="7TrPOLzpwQCSaJe59OKQ-56" value="&lt;span style=&quot;font-size: 18px;&quot;&gt;大于&amp;gt;60&lt;/span&gt;" style="whiteSpace=wrap;html=1;rounded=0;fontSize=18;fontFamily=Helvetica;" parent="1" vertex="1">
          <mxGeometry x="426" y="2663" width="120" height="60" as="geometry" />
        </mxCell>
        <mxCell id="7TrPOLzpwQCSaJe59OKQ-57" style="edgeStyle=orthogonalEdgeStyle;rounded=0;orthogonalLoop=1;jettySize=auto;html=1;fontSize=18;fontFamily=Helvetica;" parent="1" source="7TrPOLzpwQCSaJe59OKQ-58" edge="1">
          <mxGeometry relative="1" as="geometry">
            <mxPoint x="959.3333333333335" y="2795.3333333333335" as="targetPoint" />
          </mxGeometry>
        </mxCell>
        <mxCell id="7TrPOLzpwQCSaJe59OKQ-58" value="&lt;p class=&quot;MsoNormal&quot; style=&quot;font-size: 18px;&quot;&gt;&lt;span style=&quot;font-size: 18px;&quot;&gt;&lt;font style=&quot;font-size: 18px;&quot;&gt;基本课酬&lt;/font&gt;×&lt;font style=&quot;font-size: 18px;&quot;&gt;0.1&lt;/font&gt;&lt;/span&gt;&lt;/p&gt;" style="whiteSpace=wrap;html=1;rounded=0;fontSize=18;fontFamily=Helvetica;" parent="1" vertex="1">
          <mxGeometry x="644" y="2510" width="120" height="60" as="geometry" />
        </mxCell>
        <mxCell id="7TrPOLzpwQCSaJe59OKQ-59" style="edgeStyle=orthogonalEdgeStyle;rounded=0;orthogonalLoop=1;jettySize=auto;html=1;entryX=0.5;entryY=0;entryDx=0;entryDy=0;fontSize=18;fontFamily=Helvetica;" parent="1" source="7TrPOLzpwQCSaJe59OKQ-60" target="7TrPOLzpwQCSaJe59OKQ-74" edge="1">
          <mxGeometry relative="1" as="geometry">
            <Array as="points">
              <mxPoint x="959" y="2693" />
            </Array>
          </mxGeometry>
        </mxCell>
        <mxCell id="7TrPOLzpwQCSaJe59OKQ-60" value="&lt;p class=&quot;MsoNormal&quot; style=&quot;font-size: 18px;&quot;&gt;&lt;span style=&quot;font-size: 18px;&quot;&gt;&lt;font style=&quot;font-size: 18px;&quot;&gt;基本课酬&lt;/font&gt;×&lt;font style=&quot;font-size: 18px;&quot;&gt;0.2&lt;/font&gt;&lt;/span&gt;&lt;/p&gt;" style="whiteSpace=wrap;html=1;rounded=0;fontSize=18;fontFamily=Helvetica;" parent="1" vertex="1">
          <mxGeometry x="644" y="2663" width="120" height="60" as="geometry" />
        </mxCell>
        <mxCell id="7TrPOLzpwQCSaJe59OKQ-61" style="edgeStyle=orthogonalEdgeStyle;rounded=0;orthogonalLoop=1;jettySize=auto;html=1;exitX=1;exitY=0.5;exitDx=0;exitDy=0;entryX=0;entryY=0.5;entryDx=0;entryDy=0;fontSize=18;fontFamily=Helvetica;" parent="1" source="7TrPOLzpwQCSaJe59OKQ-64" target="7TrPOLzpwQCSaJe59OKQ-66" edge="1">
          <mxGeometry relative="1" as="geometry">
            <Array as="points">
              <mxPoint x="324" y="2981" />
              <mxPoint x="324" y="2908" />
            </Array>
          </mxGeometry>
        </mxCell>
        <mxCell id="7TrPOLzpwQCSaJe59OKQ-62" style="edgeStyle=orthogonalEdgeStyle;rounded=0;orthogonalLoop=1;jettySize=auto;html=1;exitX=1;exitY=0.5;exitDx=0;exitDy=0;entryX=0;entryY=0.5;entryDx=0;entryDy=0;fontSize=18;fontFamily=Helvetica;" parent="1" source="7TrPOLzpwQCSaJe59OKQ-64" target="7TrPOLzpwQCSaJe59OKQ-68" edge="1">
          <mxGeometry relative="1" as="geometry">
            <Array as="points">
              <mxPoint x="324" y="2981" />
              <mxPoint x="324" y="3061" />
            </Array>
          </mxGeometry>
        </mxCell>
        <mxCell id="7TrPOLzpwQCSaJe59OKQ-63" style="edgeStyle=orthogonalEdgeStyle;rounded=0;orthogonalLoop=1;jettySize=auto;html=1;entryX=0;entryY=0.5;entryDx=0;entryDy=0;fontSize=18;fontFamily=Helvetica;" parent="1" source="7TrPOLzpwQCSaJe59OKQ-64" target="7TrPOLzpwQCSaJe59OKQ-79" edge="1">
          <mxGeometry relative="1" as="geometry">
            <Array as="points">
              <mxPoint x="324" y="2981" />
              <mxPoint x="324" y="3367" />
            </Array>
          </mxGeometry>
        </mxCell>
        <mxCell id="7TrPOLzpwQCSaJe59OKQ-64" value="&lt;p class=&quot;MsoNormal&quot; style=&quot;font-size: 18px;&quot;&gt;&lt;span style=&quot;font-size: 18px;&quot;&gt;职称&lt;/span&gt;&lt;/p&gt;" style="rounded=0;whiteSpace=wrap;html=1;fontSize=18;fontFamily=Helvetica;" parent="1" vertex="1">
          <mxGeometry x="134" y="2951" width="120" height="60" as="geometry" />
        </mxCell>
        <mxCell id="7TrPOLzpwQCSaJe59OKQ-65" value="" style="edgeStyle=orthogonalEdgeStyle;rounded=0;orthogonalLoop=1;jettySize=auto;html=1;fontSize=18;fontFamily=Helvetica;" parent="1" source="7TrPOLzpwQCSaJe59OKQ-66" target="7TrPOLzpwQCSaJe59OKQ-70" edge="1">
          <mxGeometry relative="1" as="geometry" />
        </mxCell>
        <mxCell id="7TrPOLzpwQCSaJe59OKQ-66" value="&lt;p class=&quot;MsoNormal&quot; style=&quot;font-size: 18px;&quot;&gt;&lt;font style=&quot;font-size: 18px;&quot;&gt;&lt;span style=&quot;font-size: 18px;&quot;&gt;副教授&lt;/span&gt;&lt;/font&gt;&lt;/p&gt;" style="whiteSpace=wrap;html=1;rounded=0;fontSize=18;fontFamily=Helvetica;" parent="1" vertex="1">
          <mxGeometry x="426" y="2878" width="120" height="60" as="geometry" />
        </mxCell>
        <mxCell id="7TrPOLzpwQCSaJe59OKQ-67" value="" style="edgeStyle=orthogonalEdgeStyle;rounded=0;orthogonalLoop=1;jettySize=auto;html=1;fontSize=18;fontFamily=Helvetica;" parent="1" source="7TrPOLzpwQCSaJe59OKQ-68" target="7TrPOLzpwQCSaJe59OKQ-72" edge="1">
          <mxGeometry relative="1" as="geometry" />
        </mxCell>
        <mxCell id="7TrPOLzpwQCSaJe59OKQ-68" value="&lt;span style=&quot;font-size: 18px;&quot;&gt;教授&lt;/span&gt;" style="whiteSpace=wrap;html=1;rounded=0;fontSize=18;fontFamily=Helvetica;" parent="1" vertex="1">
          <mxGeometry x="426" y="3031" width="120" height="60" as="geometry" />
        </mxCell>
        <mxCell id="7TrPOLzpwQCSaJe59OKQ-69" style="edgeStyle=orthogonalEdgeStyle;rounded=0;orthogonalLoop=1;jettySize=auto;html=1;entryX=0.5;entryY=1;entryDx=0;entryDy=0;fontSize=18;fontFamily=Helvetica;" parent="1" target="7TrPOLzpwQCSaJe59OKQ-74" edge="1">
          <mxGeometry relative="1" as="geometry">
            <mxPoint x="749" y="2908" as="sourcePoint" />
            <mxPoint x="914" y="2854" as="targetPoint" />
          </mxGeometry>
        </mxCell>
        <mxCell id="7TrPOLzpwQCSaJe59OKQ-70" value="&lt;p class=&quot;MsoNormal&quot; style=&quot;font-size: 18px;&quot;&gt;&lt;span style=&quot;font-size: 18px;&quot;&gt;&lt;font style=&quot;font-size: 18px;&quot;&gt;基本课酬&lt;/font&gt;×&lt;font style=&quot;font-size: 18px;&quot;&gt;0.1&lt;/font&gt;&lt;/span&gt;&lt;/p&gt;" style="whiteSpace=wrap;html=1;rounded=0;fontSize=18;fontFamily=Helvetica;" parent="1" vertex="1">
          <mxGeometry x="644" y="2878" width="120" height="60" as="geometry" />
        </mxCell>
        <mxCell id="7TrPOLzpwQCSaJe59OKQ-71" style="edgeStyle=orthogonalEdgeStyle;rounded=0;orthogonalLoop=1;jettySize=auto;html=1;entryX=0.5;entryY=1;entryDx=0;entryDy=0;fontSize=18;fontFamily=Helvetica;" parent="1" source="7TrPOLzpwQCSaJe59OKQ-72" target="7TrPOLzpwQCSaJe59OKQ-74" edge="1">
          <mxGeometry relative="1" as="geometry">
            <mxPoint x="957" y="2870" as="targetPoint" />
          </mxGeometry>
        </mxCell>
        <mxCell id="7TrPOLzpwQCSaJe59OKQ-72" value="&lt;p class=&quot;MsoNormal&quot; style=&quot;font-size: 18px;&quot;&gt;&lt;span style=&quot;font-size: 18px;&quot;&gt;&lt;font style=&quot;font-size: 18px;&quot;&gt;基本课酬&lt;/font&gt;×&lt;font style=&quot;font-size: 18px;&quot;&gt;0.2&lt;/font&gt;&lt;/span&gt;&lt;/p&gt;" style="whiteSpace=wrap;html=1;rounded=0;fontSize=18;fontFamily=Helvetica;" parent="1" vertex="1">
          <mxGeometry x="644" y="3031" width="120" height="60" as="geometry" />
        </mxCell>
        <mxCell id="7TrPOLzpwQCSaJe59OKQ-73" style="edgeStyle=orthogonalEdgeStyle;rounded=0;orthogonalLoop=1;jettySize=auto;html=1;fontSize=18;fontFamily=Helvetica;" parent="1" source="7TrPOLzpwQCSaJe59OKQ-74" target="7TrPOLzpwQCSaJe59OKQ-86" edge="1">
          <mxGeometry relative="1" as="geometry" />
        </mxCell>
        <mxCell id="7TrPOLzpwQCSaJe59OKQ-74" value="&lt;p class=&quot;MsoNormal&quot; style=&quot;font-size: 18px;&quot;&gt;&lt;span style=&quot;font-size: 18px;&quot;&gt;基本课酬&lt;/span&gt;&lt;/p&gt;" style="whiteSpace=wrap;html=1;fontSize=18;fontFamily=Helvetica;" parent="1" vertex="1">
          <mxGeometry x="899" y="2794" width="120" height="60" as="geometry" />
        </mxCell>
        <mxCell id="7TrPOLzpwQCSaJe59OKQ-75" style="edgeStyle=orthogonalEdgeStyle;rounded=0;orthogonalLoop=1;jettySize=auto;html=1;fontSize=18;fontFamily=Helvetica;" parent="1" source="7TrPOLzpwQCSaJe59OKQ-76" edge="1">
          <mxGeometry relative="1" as="geometry">
            <mxPoint x="959" y="2851" as="targetPoint" />
          </mxGeometry>
        </mxCell>
        <mxCell id="7TrPOLzpwQCSaJe59OKQ-76" value="&lt;font style=&quot;font-size: 18px;&quot;&gt;&lt;span style=&quot;font-size: 18px;&quot;&gt;讲师&lt;/span&gt;&lt;/font&gt;" style="whiteSpace=wrap;html=1;rounded=0;fontSize=18;fontFamily=Helvetica;" parent="1" vertex="1">
          <mxGeometry x="426" y="3184" width="120" height="60" as="geometry" />
        </mxCell>
        <mxCell id="7TrPOLzpwQCSaJe59OKQ-77" style="edgeStyle=orthogonalEdgeStyle;rounded=0;orthogonalLoop=1;jettySize=auto;html=1;entryX=0;entryY=0.606;entryDx=0;entryDy=0;entryPerimeter=0;fontSize=18;fontFamily=Helvetica;" parent="1" source="7TrPOLzpwQCSaJe59OKQ-64" target="7TrPOLzpwQCSaJe59OKQ-76" edge="1">
          <mxGeometry relative="1" as="geometry">
            <Array as="points">
              <mxPoint x="324" y="2981" />
              <mxPoint x="324" y="3220" />
            </Array>
          </mxGeometry>
        </mxCell>
        <mxCell id="7TrPOLzpwQCSaJe59OKQ-78" style="edgeStyle=orthogonalEdgeStyle;rounded=0;orthogonalLoop=1;jettySize=auto;html=1;entryX=0;entryY=0.5;entryDx=0;entryDy=0;fontSize=18;fontFamily=Helvetica;" parent="1" source="7TrPOLzpwQCSaJe59OKQ-79" target="7TrPOLzpwQCSaJe59OKQ-87" edge="1">
          <mxGeometry relative="1" as="geometry" />
        </mxCell>
        <mxCell id="7TrPOLzpwQCSaJe59OKQ-79" value="&lt;font style=&quot;font-size: 18px;&quot;&gt;&lt;span style=&quot;font-size: 18px;&quot;&gt;助教&lt;/span&gt;&lt;/font&gt;" style="whiteSpace=wrap;html=1;rounded=0;fontSize=18;fontFamily=Helvetica;" parent="1" vertex="1">
          <mxGeometry x="426" y="3337" width="120" height="60" as="geometry" />
        </mxCell>
        <mxCell id="7TrPOLzpwQCSaJe59OKQ-80" style="edgeStyle=orthogonalEdgeStyle;rounded=0;orthogonalLoop=1;jettySize=auto;html=1;exitX=1;exitY=0.5;exitDx=0;exitDy=0;fontSize=18;fontFamily=Helvetica;entryX=0.5;entryY=1;entryDx=0;entryDy=0;" parent="1" source="7TrPOLzpwQCSaJe59OKQ-87" target="7TrPOLzpwQCSaJe59OKQ-74" edge="1">
          <mxGeometry relative="1" as="geometry">
            <mxPoint x="772" y="3371" as="sourcePoint" />
            <mxPoint x="1049" y="2960" as="targetPoint" />
          </mxGeometry>
        </mxCell>
        <mxCell id="7TrPOLzpwQCSaJe59OKQ-81" value="增加" style="text;html=1;align=center;verticalAlign=middle;resizable=0;points=[];autosize=1;strokeColor=none;fillColor=none;fontSize=18;fontFamily=Helvetica;" parent="1" vertex="1">
          <mxGeometry x="835" y="2509" width="54" height="34" as="geometry" />
        </mxCell>
        <mxCell id="7TrPOLzpwQCSaJe59OKQ-82" value="增加" style="text;html=1;align=center;verticalAlign=middle;resizable=0;points=[];autosize=1;strokeColor=none;fillColor=none;fontSize=18;fontFamily=Helvetica;" parent="1" vertex="1">
          <mxGeometry x="835" y="2662" width="54" height="34" as="geometry" />
        </mxCell>
        <mxCell id="7TrPOLzpwQCSaJe59OKQ-83" value="增加" style="text;html=1;align=center;verticalAlign=middle;resizable=0;points=[];autosize=1;strokeColor=none;fillColor=none;fontSize=18;fontFamily=Helvetica;" parent="1" vertex="1">
          <mxGeometry x="813" y="2877" width="54" height="34" as="geometry" />
        </mxCell>
        <mxCell id="7TrPOLzpwQCSaJe59OKQ-84" value="增加" style="text;html=1;align=center;verticalAlign=middle;resizable=0;points=[];autosize=1;strokeColor=none;fillColor=none;fontSize=18;fontFamily=Helvetica;" parent="1" vertex="1">
          <mxGeometry x="813" y="3030" width="54" height="34" as="geometry" />
        </mxCell>
        <mxCell id="7TrPOLzpwQCSaJe59OKQ-85" value="减少" style="text;html=1;align=center;verticalAlign=middle;resizable=0;points=[];autosize=1;strokeColor=none;fillColor=none;fontSize=18;fontFamily=Helvetica;" parent="1" vertex="1">
          <mxGeometry x="817" y="3336" width="54" height="34" as="geometry" />
        </mxCell>
        <mxCell id="7TrPOLzpwQCSaJe59OKQ-86" value="&lt;p class=&quot;MsoNormal&quot; style=&quot;font-size: 18px;&quot;&gt;&lt;span style=&quot;font-size: 18px;&quot;&gt;总课酬&lt;/span&gt;&lt;/p&gt;" style="whiteSpace=wrap;html=1;fontSize=18;fontFamily=Helvetica;" parent="1" vertex="1">
          <mxGeometry x="1108" y="2794" width="120" height="60" as="geometry" />
        </mxCell>
        <mxCell id="7TrPOLzpwQCSaJe59OKQ-87" value="&lt;p class=&quot;MsoNormal&quot; style=&quot;font-size: 18px;&quot;&gt;&lt;span style=&quot;font-size: 18px;&quot;&gt;&lt;font style=&quot;font-size: 18px;&quot;&gt;基本课酬&lt;/font&gt;×&lt;font style=&quot;font-size: 18px;&quot;&gt;0.1&lt;/font&gt;&lt;/span&gt;&lt;/p&gt;" style="whiteSpace=wrap;html=1;rounded=0;fontSize=18;fontFamily=Helvetica;" parent="1" vertex="1">
          <mxGeometry x="644" y="3337" width="120" height="60" as="geometry" />
        </mxCell>
      </root>
    </mxGraphModel>
  </diagram>
</mxfile>
